<svg width="381" height="72" viewBox="0 0 381 72" fill="none" xmlns="http://www.w3.org/2000/svg">
<path d="M0 70.54V35.4964H6.24465V48.9059H31.3797V35.4964H37.6244V70.54H31.3797V55.9998H6.24465V70.54H0Z" fill="#2581C4"/>
<path d="M44.8633 70.54V35.4964H51.1079V70.54H44.8633Z" fill="#2581C4"/>
<path d="M58.3652 70.54V35.4964H65.5095L90.7187 61.6468V35.4964H96.9634V70.54H89.9381L64.6099 44.0811V70.54H58.3652Z" fill="#2581C4"/>
<path d="M104.213 70.54V35.4964H128.991C138.708 35.4964 144.41 39.9173 144.41 52.9668C144.41 66.0163 138.633 70.54 128.991 70.54H104.213ZM111.075 63.5195L128.411 63.5048C135.281 63.5048 137.934 60.9346 137.934 52.9741C137.934 45.0137 135.281 42.5462 128.411 42.5462L111.075 42.561V63.5269V63.5195Z" fill="#2581C4"/>
<path d="M178.861 63.0935H157.123L153.413 70.54H145.92L163.873 35.4964H172.184L190.138 70.54H182.57L178.861 63.0935ZM175.931 57.2848L168.006 41.3567L160.044 57.2848H175.924H175.931Z" fill="#2581C4"/>
<path d="M228.794 63.5048V70.5472H194.686V35.5039H201.718V63.5048H228.794Z" fill="#2581C4"/>
<path d="M275.568 53.0182C275.568 40.4313 282.164 34.8282 296.957 34.8282C311.751 34.8282 318.345 40.4313 318.345 53.0182C318.345 65.6051 311.751 71.2082 296.957 71.2082C282.164 71.2082 275.568 65.6124 275.568 53.0182ZM312.018 53.0182C312.018 45.1606 308.391 41.9221 296.957 41.9221C285.523 41.9221 281.814 45.1606 281.814 53.0182C281.814 60.8758 285.523 64.1143 296.957 64.1143C308.391 64.1143 312.018 60.8758 312.018 53.0182Z" fill="#2581C4"/>
<path d="M270.269 70.54H248.458C238.741 70.54 233.039 66.1192 233.039 53.0696C233.039 40.0201 238.815 35.4964 248.458 35.4964H270.269V42.5169L249.379 42.5316C242.509 42.5316 239.856 45.1018 239.856 53.0623C239.856 61.0227 242.509 63.4902 249.379 63.4902L270.269 63.4754V70.5326V70.54Z" fill="#2581C4"/>
<path d="M318.34 23.7175H326.137C328.732 23.7175 330.836 21.6393 330.836 19.0765V0.578003H337.08V19.0765C337.08 21.6393 339.184 23.7175 341.779 23.7175H357.368C359.963 23.7175 362.067 21.6393 362.067 19.0765V6.74653H368.311V19.0765C368.311 21.6393 370.415 23.7175 373.01 23.7175H380.809V29.8861H373.01C370.415 29.8861 368.311 31.9643 368.311 34.5273V46.8424H362.067V34.5273C362.067 31.9643 359.963 29.8861 357.368 29.8861H341.779C339.184 29.8861 337.08 31.9643 337.08 34.5273V53.0184H330.836V34.5273C330.836 31.9643 328.732 29.8861 326.137 29.8861H318.34V23.7175Z" fill="url(#paint0_linear_3059_1135)"/>
<defs>
<linearGradient id="paint0_linear_3059_1135" x1="318.34" y1="26.8018" x2="380.802" y2="26.8018" gradientUnits="userSpaceOnUse">
<stop stop-color="#2581C4"/>
<stop offset="0.25" stop-color="#2DAFE6"/>
<stop offset="0.29" stop-color="#3FB5E6"/>
<stop offset="0.36" stop-color="#6FC6E7"/>
<stop offset="0.47" stop-color="#BCE2EA"/>
<stop offset="0.5" stop-color="#D3EAE8"/>
<stop offset="0.62" stop-color="#8FC59B"/>
<stop offset="0.71" stop-color="#64AD6B"/>
<stop offset="0.75" stop-color="#54A559"/>
<stop offset="1" stop-color="#00933A"/>
</linearGradient>
</defs>
</svg>
