<svg width="84" height="94" viewBox="0 0 84 94" fill="none" xmlns="http://www.w3.org/2000/svg">
<g clip-path="url(#clip0_3380_741)">
<path d="M67.8101 50.0206C67.0074 49.0375 66.604 48.9859 65.845 49.7604C64.4065 51.2281 63.413 52.9698 62.8268 54.926C61.4876 59.3845 59.8961 63.7933 58.9364 68.3332C57.5495 74.8969 56.6335 81.5578 55.5189 88.1791C55.503 88.2764 55.503 88.3777 55.493 88.475C55.3202 90.1094 54.6625 90.5841 53.1047 90.0796C52.8961 90.0121 52.7232 89.3965 52.763 89.0628C53.0809 86.4691 53.4326 83.8794 53.8141 81.2937C55.0182 73.0996 56.6514 65.0028 59.1947 57.1046C59.9776 54.6737 60.8935 52.3204 62.1711 50.104C62.3341 49.822 62.2864 49.0713 62.197 49.0495C61.7122 48.9184 60.9671 48.7198 60.7147 48.9641C60.1166 49.54 59.6557 50.3086 59.298 51.0732C57.5912 54.7234 56.6792 58.6258 55.8129 62.5322C53.8836 71.2348 52.6815 80.0505 51.9404 88.9278C51.8549 89.9386 51.5172 90.1611 50.5614 90.1591C40.6943 90.1253 30.8251 90.1293 20.958 90.1571C20.0678 90.1591 19.7539 89.9386 19.7598 89.0032C19.7956 82.5826 19.7916 76.162 19.7638 69.7413C19.7598 68.8993 19.9705 68.5914 20.8706 68.5954C30.3403 68.6252 39.8121 68.6272 49.2818 68.5914C50.2415 68.5875 50.4323 68.8933 50.3687 69.789C50.1442 73.0241 49.9971 76.2632 49.8263 79.5004C49.8104 79.8062 49.8243 80.114 49.8243 80.4199L50.0985 80.4457C50.1859 79.9194 50.2892 79.3951 50.3568 78.8668C51.3423 71.2804 52.5742 63.7397 54.6565 56.3678C55.3003 54.0899 56.099 51.8457 56.9713 49.6433C57.3508 48.686 57.9747 47.7526 58.7019 47.0218C60.0431 45.6713 61.9526 45.6197 63.5779 46.7696C64.1203 47.1529 64.4939 47.282 65.1476 46.9324C66.6875 46.1082 68.3605 46.5293 69.495 47.8877C69.95 48.4338 70.4209 48.7536 71.2316 48.7754C72.7019 48.8151 73.7173 49.6711 74.3471 51.0255C74.6372 51.6511 74.9988 52.3144 75.5055 52.7553C77.0752 54.1256 77.3911 55.9547 77.0156 57.7401C76.5566 59.9266 76.8964 61.8272 77.5521 63.9224C78.2515 66.1586 78.2852 68.6133 78.5436 70.9786C79.1833 76.8332 79.7655 82.6938 80.4212 88.5485C80.5126 89.3587 80.302 89.6507 79.5251 89.6427C78.8356 89.6348 78.0587 90.1074 77.9256 88.7768C77.1726 81.2699 76.3222 73.7728 75.5333 66.2698C75.3068 64.119 74.4723 62.2601 73.0973 60.6217C71.9866 59.2991 72.0304 58.8185 73.4153 57.5137C73.6676 57.6785 73.9319 57.8493 74.3451 58.1174C74.5995 57.049 74.5498 56.1076 74.0809 55.2119C73.7987 54.6718 73.3497 54.7591 73.0437 55.1623C72.5668 55.7918 72.1138 56.4512 71.7502 57.1502C69.4076 61.6385 67.9889 66.4664 66.6656 71.3202C65.8649 74.2554 65.1873 77.2225 64.4621 80.1776C64.3786 80.5192 64.3349 80.8727 64.2733 81.2202C64.3647 81.246 64.4561 81.2738 64.5495 81.2997C65.4774 78.4081 66.4033 75.5165 67.3312 72.6229L67.5836 72.6567C67.6054 72.9626 67.6432 73.2684 67.6432 73.5722C67.6491 78.702 67.6333 83.8318 67.667 88.9615C67.673 89.8453 67.4524 90.1889 66.5007 90.1531C64.5495 90.0796 62.5944 90.1213 60.6412 90.1352C60.0809 90.1392 59.757 90.03 59.8881 89.3488C61.9089 78.9503 64.1005 68.5954 68.0982 58.7271C68.6307 57.4124 69.2645 56.1334 69.9461 54.8882C70.3216 54.2051 70.9236 53.651 71.3647 52.9976C71.5515 52.7195 71.7721 52.1952 71.6489 52.0344C71.4422 51.7663 70.9455 51.528 70.6196 51.5796C69.501 51.7524 68.9307 52.6242 68.438 53.5497C65.1853 59.6645 63.6355 66.3473 62.1215 73.0142C60.8916 78.4299 59.9676 83.9152 58.9304 89.3746C58.8331 89.883 58.6582 90.1531 58.1118 90.1333C57.5257 90.1114 56.9395 90.1273 56.1805 90.1273C56.3573 88.894 56.4845 87.7918 56.6733 86.7035C58.3383 77.1132 60.3034 67.5925 63.4825 58.3676C64.5137 55.3708 65.5489 52.3541 67.822 50.0186L67.8101 50.0206ZM26.434 72.9467V72.9506C25.971 72.9506 25.5041 72.9129 25.0491 72.9685C24.8345 72.9943 24.5285 73.1572 24.459 73.3339C23.9662 74.6069 24.4987 75.3497 25.8618 75.3517C26.3565 75.3517 26.8592 75.304 27.346 75.3636C28.2501 75.4748 28.4825 75.0836 28.4408 74.2336C28.3772 72.9526 28.4269 72.9486 27.1254 72.9467C26.895 72.9467 26.6625 72.9467 26.432 72.9467H26.434Z" fill="white"/>
<path d="M44.4562 0C48.6188 0.0973126 53.1788 1.15186 57.0951 4.26984C59.7318 6.36901 60.9736 9.15731 61.1803 12.4401C61.3789 15.576 61.4823 18.7178 61.667 21.8536C61.6889 22.2389 61.8459 22.7572 62.126 22.9638C64.8025 24.9418 64.419 29.8551 61.2677 31.859C60.4809 32.3594 60.2504 32.979 60.1073 33.7675C59.5291 36.9728 58.4879 39.9895 56.2387 42.4362C52.8609 46.1083 48.6824 47.8639 43.6554 47.8977C38.7795 47.9314 34.7778 46.144 31.4317 42.7262C29.0514 40.2954 27.9486 37.233 27.3287 33.9681C27.1519 33.0406 26.8717 32.3554 25.9816 31.7438C22.8998 29.6287 22.6475 24.8366 25.3398 22.9002C25.614 22.7036 25.7392 22.1615 25.761 21.7702C25.908 19.0951 25.9478 16.4121 26.1465 13.7429C26.2597 12.2018 26.4346 10.6269 26.8797 9.1593C27.9764 5.56072 30.7681 3.50921 34.0009 1.99392C37.0766 0.5521 40.3591 0.00397194 44.4562 0ZM60.6835 25.0888C60.5424 25.1762 60.4332 25.2059 60.3815 25.2794C58.7224 27.6566 56.4195 28.0757 53.7133 27.6765C50.9018 27.2614 48.0644 26.9675 45.2271 26.7908C41.1419 26.5366 37.0985 27.0887 33.071 27.7321C30.6906 28.1114 28.6699 27.5156 27.2115 25.484C27.0962 25.3231 27.0227 25.1325 26.8816 24.8644C25.9696 25.8375 25.8325 26.7232 26.0988 27.7083C26.4207 28.8939 27.0187 29.875 28.3103 30.1292C29.0156 30.2682 29.2342 30.584 29.3912 31.2751C29.9058 33.5232 30.2436 35.8845 31.2013 37.944C33.3929 42.6567 37.4641 44.8194 42.507 45.3715C48.0923 45.9832 53.9537 42.9546 56.195 37.9499C57.1269 35.8706 57.4885 33.5272 58.0131 31.281C58.172 30.6018 58.3787 30.288 59.088 30.1272C61.2061 29.6466 62.1201 26.7868 60.6835 25.0908V25.0888ZM58.0329 22.2369C58.1502 22.1456 58.5575 21.9768 58.5734 21.7762C58.5952 21.4962 58.3628 21.1625 58.1641 20.9123C58.0647 20.7872 57.7985 20.7911 57.6077 20.7415C49.9799 18.7297 42.2725 18.4338 34.5036 19.7167C32.8107 19.9967 31.1357 20.4098 29.4766 20.8448C29.1825 20.9222 28.9958 21.4147 28.7593 21.7146C29.105 21.8715 29.4448 22.0463 29.8005 22.1754C29.9038 22.2131 30.0548 22.1257 30.182 22.0919C37.9171 20.0722 45.7159 19.8101 53.5722 21.2797C55.0009 21.5478 56.4136 21.8854 58.0329 22.2349V22.2369Z" fill="white"/>
<path d="M4.90809 64.6352C3.77752 63.4456 4.38155 62.1071 4.30406 60.8778C4.2981 60.7725 4.69151 60.5421 4.90014 60.5401C8.57599 60.5183 12.2518 60.5123 15.9257 60.552C16.1323 60.554 16.4483 60.9512 16.5138 61.2154C16.6152 61.6205 16.494 62.0753 16.5516 62.4983C16.6986 63.5727 16.3708 64.3194 15.3356 64.808C15.0077 64.9629 14.7574 65.4872 14.666 65.8884C14.5507 66.3928 14.6501 66.9409 14.6282 67.4712C14.5905 68.3093 14.7911 68.7938 15.8104 68.8355C16.9867 68.8852 17.8729 69.9219 17.8828 71.2386C17.9186 75.8718 17.8987 80.5051 17.863 85.1384C17.855 86.1552 17.3662 87.0131 16.4542 87.5057C15.88 87.8155 15.7171 88.2464 15.6237 88.8442C15.268 91.0864 14.4037 92.9671 12.0055 93.7198C8.96543 94.675 6.08436 93.114 5.35317 90.0139C5.1346 89.0845 4.82861 88.5324 3.82521 88.1491C2.9887 87.8294 2.21181 86.9972 1.72302 86.1989C0.425548 84.0799 0.19705 81.6391 0.0698858 79.2202C-0.104965 75.8698 0.0400816 72.5275 0.84082 69.2585C1.02362 68.5118 1.51837 67.7671 2.05484 67.1951C2.90525 66.2836 3.91065 65.517 4.91207 64.6352H4.90809ZM15.3217 79.9828C13.9705 79.9828 12.7188 79.9828 11.469 79.9828C9.90525 79.9828 9.94499 79.9808 9.9291 78.4258C9.92115 77.6751 10.1874 77.4408 10.9126 77.4666C12.1366 77.5103 13.3625 77.4408 14.5865 77.4904C15.3991 77.5222 15.3733 77.0416 15.3991 76.4756C15.427 75.8798 15.3117 75.5382 14.6064 75.56C13.3824 75.5978 12.1545 75.5223 10.9325 75.5799C10.1278 75.6176 9.84564 75.3038 9.943 74.5472C9.95493 74.4499 9.95691 74.3466 9.943 74.2493C9.81981 73.3794 10.102 72.9862 11.0676 73.0617C12.1525 73.1471 13.2513 73.0557 14.3421 73.0875C15.0336 73.1074 15.425 73.012 15.4309 72.1402C15.4369 71.2286 14.9779 71.2167 14.3183 71.2247C11.8684 71.2525 9.41845 71.2108 6.97054 71.2862C5.99694 71.316 5.66909 70.9784 5.7287 70.047C5.78036 69.2129 5.74062 68.3708 5.74062 67.4156C3.70599 68.6826 2.93704 69.4691 2.87942 70.7262C2.74034 73.86 2.57939 76.9999 2.68073 80.1317C2.7304 81.6808 3.28476 83.2259 3.71195 84.7452C3.97025 85.6627 4.73721 86.1373 5.683 86.1373C8.02958 86.1413 10.3781 86.1175 12.7227 86.042C13.3705 86.0201 14.046 85.8573 14.6441 85.6071C14.9859 85.4641 15.2024 85.0152 15.4747 84.7054C15.3991 84.6081 15.3236 84.5128 15.2481 84.4155C13.7957 84.4155 12.3432 84.3877 10.8928 84.4274C10.1536 84.4473 9.84763 84.1752 9.943 83.4463C9.96089 83.3153 9.96287 83.1802 9.943 83.0491C9.8218 82.2091 10.1099 81.8516 11.0239 81.9151C12.1445 81.9946 13.2751 81.8873 14.3977 81.9489C15.1945 81.9926 15.4985 81.7126 15.3852 80.9341C15.3475 80.6759 15.3495 80.4118 15.3217 79.9848V79.9828Z" fill="white"/>
<path d="M73.7165 41.7173C72.1786 38.8158 70.7301 36.0851 69.1445 33.0942C70.3586 33.0942 71.36 33.0605 72.3594 33.1061C73.0389 33.1359 73.3708 32.9334 73.49 32.2144C73.7383 30.723 74.0821 29.2494 74.4179 27.611H69.6154C69.7625 26.755 69.8737 26.054 70.0049 25.3549C70.7361 21.4882 71.4871 17.6275 72.1925 13.7568C72.3217 13.0458 72.578 12.7638 73.339 12.7837C75.3239 12.8353 77.3109 12.7976 79.2958 12.8035C79.5819 12.8035 79.8681 12.8433 80.2575 12.8731C79.5641 15.3039 78.8984 17.6354 78.1871 20.1278H84.0029C83.0988 22.4117 82.2683 24.5128 81.4358 26.614C80.6092 28.6973 79.7806 30.7786 78.8825 33.0406H83.3154C83.3651 33.1478 83.4167 33.2571 83.4664 33.3643C80.2655 36.1069 77.0645 38.8516 73.7165 41.7193V41.7173Z" fill="white"/>
<path d="M43.596 58.9454C44.3391 58.1808 44.9432 57.5771 45.5273 56.9515C47.5798 54.751 49.6224 52.5446 51.671 50.3422C52.3644 49.5974 54.0831 49.3532 54.9077 49.9072C55.0388 49.9946 55.1819 50.2826 55.1322 50.3819C54.7746 51.0849 54.8779 52.0521 53.6659 52.2527C53.0757 52.35 52.581 53.1464 52.0842 53.6667C49.3661 56.5086 46.6599 59.3644 43.9477 62.2123C43.8841 62.2798 43.7749 62.3017 43.602 62.3871C41.6866 60.3634 39.7553 58.3258 37.8299 56.2822C36.7212 55.1045 35.6045 53.9328 34.5236 52.7293C33.6236 51.7284 32.6003 52.4294 31.6466 52.5049C30.6054 52.5863 29.9338 53.0669 30.0411 54.332C30.1444 55.5434 30.0192 56.7747 30.0153 57.9961C30.0073 60.7765 29.9974 63.5548 30.0192 66.3352C30.0252 66.9707 29.8285 67.213 29.1688 67.2011C27.3488 67.1673 25.5268 67.1554 23.7067 67.205C22.9338 67.2249 22.7669 66.927 22.7729 66.216C22.8047 62.9074 22.7868 59.5988 22.7888 56.2901C22.7888 55.8989 22.7888 55.5057 22.7888 54.8483C21.4794 55.5077 20.319 56.024 19.2262 56.6615C18.2307 57.2434 17.2631 57.9008 16.3729 58.6316C15.7927 59.1082 15.4569 59.0665 14.9841 58.5383C14.682 58.2026 14.237 57.9961 13.8555 57.732C13.8833 57.5751 13.9111 57.4182 13.9369 57.2613C15.4649 56.2028 16.9173 55.0032 18.5387 54.1135C21.6483 52.4056 24.9863 51.2478 28.4833 50.6003C30.2656 50.2707 32.0559 49.9887 33.8382 49.659C34.5753 49.522 35.1217 49.6451 35.6721 50.2528C38.0664 52.8941 40.5222 55.4799 42.9483 58.0914C43.1708 58.3317 43.3477 58.6157 43.596 58.9494V58.9454Z" fill="white"/>
<path d="M10.4046 39.2986C11.3305 39.2986 12.2584 39.3264 13.1843 39.2867C13.7983 39.2609 14.0904 39.4774 14.1678 40.101C14.4142 42.0691 14.76 44.0252 14.9229 45.9993C14.9745 46.6328 14.7401 47.4292 14.3566 47.9376C12.5326 50.3565 12.3538 53.0872 12.5882 55.943C12.6637 56.8626 12.5843 57.796 12.6141 58.7214C12.6339 59.3172 12.4054 59.5555 11.8014 59.5357C10.8755 59.5039 9.94758 59.4979 9.02167 59.5357C8.37392 59.5635 8.1494 59.3232 8.16331 58.6757C8.19709 56.9559 8.03614 55.2221 8.20901 53.5182C8.42757 51.3694 7.38641 49.719 6.49428 47.9575C6.13663 47.2504 5.775 46.4024 5.83461 45.6517C5.98959 43.7174 6.35519 41.797 6.70092 39.8825C6.74264 39.6521 7.16388 39.3443 7.42615 39.3264C8.41565 39.2609 9.41111 39.3006 10.4026 39.2986H10.4046Z" fill="white"/>
</g>
<defs>
<clipPath id="clip0_3380_741">
<rect width="84" height="94" fill="white"/>
</clipPath>
</defs>
</svg>
