<svg width="68" height="89" viewBox="0 0 68 89" fill="none" xmlns="http://www.w3.org/2000/svg">
<path fill-rule="evenodd" clip-rule="evenodd" d="M65.4991 81.8006L56.9955 80.2796L52.7727 87.8049C49.7129 91.5857 47.7723 85.3713 46.9146 83.2057L38.709 67.7785C40.5987 67.1266 42.8809 65.2362 45.2503 63.1213C49.9236 63.2155 54.2772 62.397 57.4824 58.341L66.9309 76.5061L67.7522 78.2444C68.3918 80.5114 68.0574 82.0106 65.5718 81.8006H65.4991ZM2.49952 81.8006L11.0031 80.2796L15.2622 87.8049C18.3221 91.5857 20.2627 85.3713 21.1203 83.2057L29.2896 67.7785C27.3999 67.1266 25.1177 65.2362 22.7483 63.1213C18.075 63.2155 13.7214 62.397 10.5162 58.341L1.06771 76.5061L0.282756 78.2226C-0.364101 80.4896 -0.0225024 81.9889 2.49952 81.7789V81.8006ZM51.2391 5.79424C51.7796 5.99938 52.2737 6.3096 52.6928 6.70684L56.8501 10.5311C57.2689 10.9229 57.6136 11.3865 57.8676 11.9C58.1218 12.4274 58.2605 13.0026 58.2746 13.5875C58.2937 14.1727 58.1974 14.7559 57.9912 15.3041C57.7861 15.8499 57.4636 16.3443 57.0463 16.7527L56.494 17.3538C57.4054 18.9589 58.1367 20.6591 58.6744 22.4238H59.0741C59.6612 22.3965 60.2476 22.4902 60.7966 22.699C61.3377 22.9063 61.8319 23.219 62.2503 23.6189C62.6734 24.0074 63.0123 24.4782 63.246 25.0023C63.485 25.5244 63.6208 26.0875 63.6457 26.6609L63.8565 32.361C63.8883 32.9317 63.8043 33.5029 63.6094 34.0405C63.4146 34.5781 63.113 35.0711 62.7227 35.4899C62.3264 35.9214 61.8469 36.2687 61.3127 36.5111C60.778 36.7448 60.2029 36.8727 59.6192 36.8877H58.7907C58.2895 38.6464 57.6 40.3462 56.7338 41.9577L57.0318 42.2185L57.1117 42.2982C57.5253 42.6971 57.8541 43.175 58.0784 43.7033C58.3128 44.2259 58.4412 44.7896 58.4563 45.3619C58.4785 45.9282 58.3922 46.4936 58.202 47.0277C58.0066 47.56 57.7133 48.0513 57.3371 48.4763L57.2862 48.527L53.4196 52.6627C53.0326 53.0974 52.5633 53.4519 52.0386 53.7056C51.499 53.9587 50.9123 54.0969 50.3161 54.1112C49.722 54.1272 49.1302 54.0314 48.5718 53.8287C48.0249 53.6228 47.5291 53.3016 47.1182 52.8872L46.5149 52.2933C44.9277 53.1773 43.2486 53.8865 41.5072 54.4082V54.821C41.5399 55.4046 41.4432 55.9882 41.2238 56.5303C41.0246 57.0722 40.7125 57.5659 40.308 57.9789C39.92 58.4028 39.4471 58.7409 38.9198 58.9712C38.3989 59.2117 37.8361 59.3494 37.2627 59.3768L31.5427 59.5796C30.96 59.6178 30.3756 59.5367 29.8255 59.3411C29.2755 59.1455 28.7715 58.8397 28.3447 58.4424C27.9139 58.0456 27.5657 57.5682 27.32 57.0373C27.0713 56.5068 26.9258 55.9342 26.8911 55.3497V54.5168C25.1258 54.0192 23.4199 53.3319 21.8035 52.4671L21.5273 52.764L21.4546 52.8437C21.0563 53.2582 20.5762 53.5862 20.0446 53.807C18.9905 54.2659 17.8012 54.3099 16.7158 53.9301C16.1834 53.732 15.691 53.4401 15.2622 53.0682L15.2114 53.0175L11.0468 49.1137C10.6276 48.7166 10.283 48.2481 10.0292 47.7303C9.78107 47.2007 9.64264 46.6268 9.62222 46.0427C9.6116 45.4605 9.70766 44.8812 9.90567 44.3334C10.1277 43.7963 10.4481 43.305 10.8505 42.8848L11.4392 42.2547C10.5564 40.6684 9.84494 38.9931 9.31696 37.2571H8.90995C8.32431 37.2898 7.73866 37.1933 7.19468 36.9747C6.65261 36.7728 6.15786 36.4622 5.74107 36.0621C5.31956 35.672 4.98096 35.2016 4.74535 34.6787C4.51045 34.1552 4.37491 33.5928 4.3456 33.0201L4.13483 27.32C4.10321 26.7412 4.17961 26.1616 4.36014 25.6107C4.57265 25.0754 4.88318 24.5842 5.27592 24.1621C5.67209 23.7249 6.15134 23.3704 6.68592 23.1191C7.22171 22.8888 7.79618 22.7611 8.37938 22.7425H9.20794C9.71213 20.9838 10.4041 19.2841 11.2721 17.6725L11.0031 17.3828C10.5637 16.9937 10.2141 16.5143 9.97835 15.9777C9.72748 15.4491 9.58891 14.8746 9.57134 14.2901C9.54454 13.7068 9.64112 13.1245 9.8548 12.5808C10.0618 12.0428 10.373 11.5506 10.7706 11.1322L14.6081 6.96758C14.9998 6.53793 15.4681 6.18431 15.989 5.92461C16.5199 5.67691 17.0965 5.54129 17.6825 5.52626C18.2661 5.50682 18.8481 5.59775 19.3978 5.79424C19.9455 5.99856 20.4416 6.31995 20.8514 6.73581L21.4982 7.32972C23.0825 6.44999 24.7563 5.74101 26.4914 5.21482V4.78025C26.4622 4.19683 26.5588 3.61396 26.7748 3.07094C26.9807 2.53234 27.292 2.03993 27.6906 1.62237C28.076 1.19515 28.5463 0.852334 29.0716 0.615613C29.5928 0.375967 30.1553 0.238275 30.7287 0.210014L36.4414 -2.79993e-05C37.0263 -0.0221099 37.6103 0.063836 38.1639 0.253471C38.7094 0.451838 39.2053 0.765652 39.6175 1.17331C40.0729 1.55845 40.4418 2.03471 40.7005 2.57118C40.9315 3.10511 41.0597 3.67759 41.0784 4.25876V5.08444C42.8428 5.58483 44.5484 6.27199 46.166 7.13417L46.4204 6.86618C46.8112 6.4304 47.2923 6.08442 47.8304 5.85219C48.3603 5.60058 48.9372 5.46241 49.5239 5.44659C50.1085 5.42094 50.6922 5.5146 51.2391 5.72181V5.79424ZM27.4944 25.3499L31.6299 29.2321L39.93 20.7869C40.7513 19.954 41.2674 19.2949 42.2776 20.3306L45.5701 23.6841C46.653 24.7488 46.5949 25.3716 45.5701 26.3639L33.4978 38.177C31.3174 40.2774 31.7244 40.4078 29.5512 38.2566L21.9489 30.7241C21.8499 30.6277 21.773 30.5112 21.7234 30.3824C21.6739 30.2537 21.6529 30.1158 21.6619 29.9782C21.6708 29.8406 21.7096 29.7065 21.7754 29.5852C21.8413 29.464 21.9327 29.3583 22.0433 29.2755L25.8591 25.3354C26.4405 24.7415 26.8984 24.7777 27.4944 25.3354V25.3499ZM30.3289 11.5885C33.9417 10.8648 37.6888 11.2247 41.0964 12.6228C44.5039 14.0209 47.4191 16.3944 49.4732 19.4433C51.5274 22.4921 52.6283 26.0795 52.6369 29.7518C52.6454 33.4241 51.5612 37.0164 49.5213 40.0748C47.4814 43.1331 44.5774 45.5201 41.1764 46.934C37.7754 48.3479 34.0301 48.7252 30.4139 48.0182C26.7977 47.3112 23.4731 45.5516 20.8603 42.962C18.2475 40.3723 16.4638 37.0688 15.7347 33.4691C15.2512 31.0775 15.2452 28.6144 15.717 26.2204C16.1888 23.8264 17.1292 21.5485 18.4844 19.5167C19.8396 17.4849 21.5831 15.739 23.6154 14.3787C25.6477 13.0184 27.9289 12.0703 30.3289 11.5885Z" fill="white"/>
</svg>
