<svg width="105" height="90" viewBox="0 0 105 90" fill="none" xmlns="http://www.w3.org/2000/svg">
<g clip-path="url(#clip0_3380_748)">
<path d="M23.6187 82.3564C19.87 75.306 24.849 67.3391 32.8525 67.4345C35.449 67.4676 36.6835 66.5511 38.0208 64.5687C45.7486 53.0724 53.5834 41.6467 61.4552 30.25C62.2905 29.0431 62.2329 28.1266 61.7433 26.8617C60.1919 22.843 61.3277 18.8077 64.6278 16.0663C68.1666 13.1259 73.014 12.4209 76.2771 14.4074C74.9274 15.776 73.5695 17.1156 72.2568 18.5008C70.3105 20.5578 70.4751 22.7268 72.693 25.0369C74.948 27.3801 77.2647 27.6248 79.3509 25.7129C80.5977 24.5724 81.824 23.407 83.1161 22.2001C85.8154 28.5247 80.3385 36.4004 73.6271 36.0313C71.9894 35.9401 71.2034 36.4875 70.3475 37.7483C62.1794 49.7795 53.9661 61.7776 45.7239 73.7591C44.8927 74.9659 44.6294 76.0732 44.8351 77.5704C45.9832 85.9023 38.8644 92.1854 31.2765 89.2823C32.8361 87.7229 34.3298 86.2714 35.7782 84.7701C37.1896 83.3061 37.6217 81.5352 36.9962 79.6067C36.3708 77.6741 34.9552 76.2723 32.9719 76.264C31.5357 76.2557 29.8939 76.8197 28.7088 77.6575C26.8859 78.9473 25.3799 80.6933 23.6146 82.3605L23.6187 82.3564Z" fill="white"/>
<path d="M90.487 86.1805C108.967 65.3405 106.07 31.8761 84.3476 13.8728C65.4396 -1.79145 37.5117 -1.32281 19.0235 15.4156C0.267733 32.3987 -1.70742 58.9329 8.71975 77.1602C9.60445 76.0778 10.4315 75.0741 11.5385 73.7221C11.9993 78.0809 12.4149 82.0001 12.8923 86.504C9.04482 83.912 5.67883 81.6434 1.8314 79.0472C3.65019 78.7901 4.88466 78.6118 6.35368 78.4044C6.04917 77.6911 5.84343 77.1353 5.58008 76.6128C-10.073 45.2511 8.73621 7.24131 43.0586 0.879393C72.8094 -4.63648 101.132 16.3985 104.618 46.6819C106.231 60.6997 102.725 73.3779 94.4785 84.7746C93.4333 86.222 92.3181 86.7529 90.4829 86.1805H90.487Z" fill="white"/>
<path d="M21.4928 58.0949C22.9577 57.7093 23.9988 57.4314 25.1715 57.1245C25.0357 55.4241 24.9781 53.7818 24.7148 52.1685C24.6531 51.7828 23.9576 51.3432 23.4803 51.2188C22.7849 51.0363 22.0195 51.1151 20.9414 51.0653C21.176 48.8673 21.3899 46.8558 21.6245 44.637C23.003 44.8651 24.1181 45.0518 25.369 45.2633C25.9904 43.4177 26.5994 41.622 27.2249 39.764C26.0892 39.146 25.0851 38.5945 23.9041 37.9516C24.9987 36.0895 26.0357 34.3269 27.1878 32.3694C28.3071 33.1366 29.2412 33.7795 30.2987 34.5011C31.6072 33.0869 32.8911 31.6975 34.2531 30.2253C33.5207 29.2506 32.8376 28.3424 31.9858 27.2102C33.7305 25.9494 35.3683 24.7674 37.1912 23.4486C37.9195 24.6099 38.5244 25.5679 39.1951 26.6337C40.7464 25.9992 42.2813 25.4517 43.7256 24.726C44.0795 24.5476 44.3182 23.7638 44.2853 23.2827C44.24 22.5487 43.9108 21.8353 43.5981 20.7487C45.7049 20.2842 47.7212 19.8405 49.7498 19.3926C50.1531 20.8234 50.256 22.7933 50.8444 22.9551C52.4863 23.4071 54.3339 23.1127 56.3008 23.1127C56.4983 22.0261 56.6999 20.898 56.9139 19.7161C58.1278 19.6041 58.6175 19.8197 58.5475 21.2547C58.4488 23.2869 58.6545 25.3605 58.9713 27.3802C59.2964 29.4207 58.0208 31.0464 56.021 30.8308C47.5031 29.9059 40.5572 32.838 35.7633 39.9879C31.06 47.0051 30.9859 54.4744 34.8539 61.9809C35.7468 63.7145 35.286 64.5025 33.3355 64.6103C32.4467 64.6601 31.4879 64.5357 30.6855 64.826C28.8749 65.4854 27.6446 65.1619 27.0973 62.9514C25.8999 63.3952 24.8382 63.7892 23.4721 64.291C22.8343 62.292 22.1965 60.3054 21.4928 58.1032V58.0949Z" fill="white"/>
<path d="M75.7687 68.712C76.6945 69.5124 77.5669 70.2672 78.6326 71.1879C77.1965 72.7721 75.8304 74.2734 74.1104 76.1688C73.3409 75.0365 72.6948 74.0868 71.9747 73.0293C70.0983 74.3398 68.5511 75.4222 66.9134 76.5669C67.4236 77.6576 67.9092 78.6986 68.51 79.9842C66.5595 80.8386 64.7119 81.6514 62.6915 82.5348C62.1854 81.2326 61.7739 80.175 61.313 78.9889C59.4572 79.358 57.6631 79.7105 55.7538 80.0879V83.7458H49.532C49.532 82.7961 49.5773 81.9957 49.5156 81.1994C49.4827 80.7598 49.314 79.9801 49.1288 79.9552C47.3676 79.7188 47.7544 78.2922 47.6145 77.2388C47.3141 74.9951 49.6102 72.5482 51.8323 72.6353C67.6664 73.2408 78.3076 57.6138 72.0035 43.0071C70.9913 40.6639 71.983 39.2787 74.5424 38.8391C76.7933 38.4534 78.9701 37.6323 81.476 36.9189C81.6571 37.2881 81.9986 37.9848 82.3854 38.7728C81.2374 39.3368 80.2621 39.8179 79.1223 40.3778C79.6737 42.2026 80.2251 44.0149 80.8135 45.9683C81.9781 45.8148 83.0973 45.6697 84.517 45.4831C84.7227 47.6065 84.9161 49.6179 85.1095 51.6335C83.694 51.9238 81.7847 51.845 81.5336 52.4546C80.8794 54.0472 80.9493 55.9425 80.7066 57.9042C81.8011 58.1903 82.8381 58.464 84.2659 58.8373C83.5829 60.9607 82.9327 62.9846 82.2332 65.1577C80.9041 64.6103 79.9083 64.1956 78.7396 63.7145C77.7521 65.3651 76.7809 66.9908 75.7563 68.7037L75.7687 68.712Z" fill="white"/>
</g>
<defs>
<clipPath id="clip0_3380_748">
<rect width="105" height="90" fill="white"/>
</clipPath>
</defs>
</svg>
