<svg width="326" height="284" viewBox="0 0 326 284" fill="none" xmlns="http://www.w3.org/2000/svg">
<g clip-path="url(#clip0_3367_683)">
<path d="M266.2 177.51L1 282.47V105.29L266.2 1.46997V177.51Z" stroke="url(#paint0_linear_3367_683)" stroke-width="2" stroke-miterlimit="10"/>
<path d="M226.82 166.99L40.38 240.77V116.21L226.82 43.22V166.99Z" stroke="url(#paint1_linear_3367_683)" stroke-width="2" stroke-miterlimit="10"/>
<path d="M137.55 77.08V201.21" stroke="url(#paint2_linear_3367_683)" stroke-width="2" stroke-miterlimit="10"/>
<path d="M190.12 138.53C184.22 140.96 181.06 146.15 181.65 152.9C182.35 160.77 187.25 165.66 193.95 168.71C199.65 171.3 206.61 170.82 209.38 165.61C215.79 153.55 220.53 140.61 225.95 128.02C225.07 127.5 224.18 126.99 223.3 126.47C212.22 130.44 200.99 134.05 190.11 138.52L190.12 138.53ZM241.97 72.02C236.09 74.51 233.05 80.48 235.68 86.15C237.93 90.99 242.45 95.74 247.18 98.21C252.66 101.07 259.06 98.54 261.67 92.76C266.06 83.03 269.28 72.77 273.84 60.44C261.56 64.84 251.56 67.95 241.97 72.02ZM257.76 113C251.59 116.15 251.53 124.97 256.48 130.72C261.46 136.51 270.62 137.95 274.12 132.08C279.3 123.38 282.44 113.46 286.45 104.07C285.76 103.53 285.06 102.99 284.37 102.44C275.46 105.89 266.22 108.68 257.76 113ZM177.68 71.2C174.24 73.07 171.58 79.35 171.49 83.69C171.35 90.17 176.38 94.41 182.88 95.5C188.67 96.46 193.9 94.87 196.22 88.83C199.55 80.15 202.47 71.32 206.31 60.43C195.1 64.46 185.81 66.78 177.68 71.2ZM230.66 63.89C229.93 63.18 229.21 62.48 228.48 61.77C245.76 44.26 263.04 26.75 280.32 9.23999C280.82 9.72999 281.32 10.21 281.82 10.7C264.76 28.43 247.71 46.16 230.65 63.89H230.66ZM279.25 57.22C278.53 56.51 277.81 55.81 277.09 55.1C291.12 40.69 305.16 26.28 319.19 11.87C319.97 12.64 320.76 13.41 321.54 14.18C307.44 28.52 293.34 42.87 279.24 57.21L279.25 57.22ZM275.13 76.56L273.84 75.32C285.95 63.39 298.07 51.46 310.18 39.52C310.48 39.8 310.78 40.08 311.08 40.36C299.1 52.42 287.12 64.49 275.14 76.55L275.13 76.56ZM191.88 101.4C191.46 101 191.04 100.61 190.62 100.21C200.19 90.61 209.75 81.01 219.32 71.41C219.66 71.7 220 71.98 220.34 72.27C210.85 81.98 201.37 91.69 191.88 101.4ZM293.03 95.03C293.1 95.11 293.17 95.18 293.24 95.26C303.81 83.99 314.38 72.73 324.95 61.46L326 62.48C315.01 73.33 304.02 84.17 293.03 95.02V95.03ZM297.85 68.45C298.26 68.82 298.67 69.19 299.08 69.56C291.52 78.72 283.97 87.88 276.41 97.04C275.35 96.05 274.29 95.06 273.23 94.08C281.43 85.54 289.64 77 297.84 68.45H297.85ZM188.73 127.27C188.37 126.92 188.01 126.56 187.65 126.21C195.35 118.07 203.05 109.93 210.76 101.79L212.51 103.52C204.59 111.44 196.66 119.35 188.74 127.27H188.73ZM209.39 178.89C209.1 178.62 208.81 178.35 208.52 178.08C215.19 171.44 221.87 164.8 228.54 158.17C228.77 158.44 228.99 158.71 229.22 158.98C222.61 165.62 216 172.26 209.39 178.9V178.89ZM278.47 37.2C278.77 37.49 279.07 37.78 279.37 38.07C272.95 44.69 266.53 51.32 260.1 57.94C259.69 57.52 259.28 57.1 258.88 56.67C265.41 50.18 271.94 43.69 278.47 37.2Z" fill="white"/>
<path d="M225.96 128.02C220.54 140.6 215.8 153.55 209.39 165.61C206.62 170.82 199.66 171.3 193.96 168.71C187.25 165.65 182.35 160.76 181.66 152.9C181.06 146.15 184.23 140.96 190.13 138.53C201 134.05 212.23 130.45 223.32 126.48C224.2 127 225.09 127.51 225.97 128.03L225.96 128.02ZM193.82 139.78C187.81 142.01 183.34 146.15 184.39 153.23C185.5 160.73 190.55 165.42 197.77 166.74C204.59 167.99 209.24 164.03 211.59 157.89C214.86 149.35 217.66 140.63 221.12 130.67C211.1 133.98 202.36 136.62 193.81 139.79L193.82 139.78Z" fill="url(#paint3_linear_3367_683)"/>
<path d="M261.67 92.7599C259.06 98.5499 252.66 101.07 247.18 98.2099C242.45 95.7399 237.92 90.9899 235.68 86.1499C233.05 80.4799 236.09 74.5099 241.97 72.0199C251.56 67.9499 261.56 64.8299 273.84 60.4399C269.28 72.7799 266.07 83.0399 261.67 92.7599ZM245.34 73.3299C240.08 75.2899 235.77 79.7699 238.03 85.0499C239.97 89.5799 244.71 94.1399 249.3 95.9999C254.69 98.1799 258.99 93.6399 260.95 88.4799C263.62 81.4799 265.71 74.2499 268.51 65.6799C259.97 68.4699 252.55 70.6299 245.33 73.3199L245.34 73.3299Z" fill="url(#paint4_linear_3367_683)"/>
<path d="M286.46 104.07C282.45 113.47 279.31 123.38 274.13 132.08C270.63 137.96 261.46 136.51 256.49 130.72C251.54 124.96 251.6 116.14 257.77 113C266.24 108.68 275.48 105.89 284.38 102.44C285.07 102.98 285.77 103.52 286.46 104.07ZM261.57 114C258.83 115.52 255.98 120.74 256.63 123.47C257.43 126.87 261.4 130.98 264.76 131.85C267.48 132.56 272.79 129.78 274.37 127.05C277.53 121.6 278.91 115.12 281.78 106.92C273.58 109.64 267.08 110.94 261.57 114Z" fill="url(#paint5_linear_3367_683)"/>
<path d="M196.22 88.8299C193.9 94.8699 188.68 96.4699 182.88 95.4999C176.37 94.4199 171.35 90.1699 171.49 83.6899C171.58 79.3499 174.24 73.0699 177.68 71.1999C185.82 66.7699 195.11 64.4499 206.31 60.4299C202.47 71.3099 199.55 80.1499 196.22 88.8299ZM180.73 72.6999C177.48 74.4499 173.7 79.9799 174.32 82.9299C175.13 86.7899 179.57 91.5399 183.36 92.5899C186.22 93.3799 192.05 89.8299 193.86 86.6699C197.26 80.7199 198.7 73.6599 201.41 65.7299C193.7 68.1899 186.69 69.4799 180.73 72.6999Z" fill="url(#paint6_linear_3367_683)"/>
<path d="M281.83 10.7C264.77 28.43 247.72 46.16 230.66 63.89C229.93 63.18 229.21 62.48 228.48 61.77C245.76 44.26 263.04 26.75 280.32 9.23999C280.82 9.72999 281.32 10.21 281.82 10.7H281.83Z" fill="url(#paint7_linear_3367_683)"/>
<path d="M321.55 14.18C307.45 28.52 293.35 42.87 279.25 57.21C278.53 56.5 277.81 55.8 277.09 55.09C291.12 40.68 305.16 26.27 319.19 11.86C319.97 12.63 320.76 13.4 321.54 14.17L321.55 14.18Z" fill="url(#paint8_linear_3367_683)"/>
<path d="M311.08 40.36C299.1 52.42 287.12 64.49 275.14 76.55L273.85 75.31C285.96 63.38 298.08 51.45 310.19 39.51C310.49 39.79 310.79 40.07 311.09 40.35L311.08 40.36Z" fill="url(#paint9_linear_3367_683)"/>
<path d="M220.34 72.27C210.85 81.98 201.37 91.69 191.88 101.4C191.46 101 191.04 100.61 190.62 100.21C200.19 90.61 209.75 81.01 219.32 71.41C219.66 71.7 220 71.98 220.34 72.27Z" fill="url(#paint10_linear_3367_683)"/>
<path d="M326 62.49C315.01 73.34 304.02 84.18 293.03 95.03C293.1 95.11 293.17 95.18 293.24 95.26C303.81 83.99 314.38 72.73 324.95 61.46L326 62.48V62.49Z" fill="url(#paint11_linear_3367_683)"/>
<path d="M273.24 94.0699C281.44 85.5299 289.65 76.9899 297.85 68.4399C298.26 68.8099 298.67 69.1799 299.08 69.5499C291.52 78.7099 283.97 87.8699 276.41 97.0299C275.35 96.0399 274.29 95.0499 273.23 94.0699H273.24Z" fill="url(#paint12_linear_3367_683)"/>
<path d="M212.5 103.52C204.58 111.44 196.65 119.35 188.73 127.27C188.37 126.92 188.01 126.56 187.65 126.21C195.35 118.07 203.05 109.93 210.76 101.79L212.51 103.52H212.5Z" fill="url(#paint13_linear_3367_683)"/>
<path d="M229.23 158.97C222.62 165.61 216.01 172.25 209.4 178.89C209.11 178.62 208.82 178.35 208.53 178.08C215.2 171.44 221.88 164.8 228.55 158.17C228.78 158.44 229 158.71 229.23 158.98V158.97Z" fill="url(#paint14_linear_3367_683)"/>
<path d="M258.88 56.6699C265.41 50.1799 271.94 43.69 278.47 37.2C278.77 37.49 279.07 37.78 279.37 38.07C272.95 44.6899 266.53 51.3199 260.1 57.9399C259.69 57.5199 259.28 57.0999 258.88 56.6699Z" fill="url(#paint15_linear_3367_683)"/>
<path d="M221.13 130.67C211.11 133.98 202.37 136.62 193.82 139.79C187.81 142.02 183.34 146.16 184.39 153.24C185.5 160.74 190.55 165.43 197.77 166.75C204.59 168 209.24 164.04 211.59 157.9C214.86 149.36 217.66 140.64 221.12 130.68L221.13 130.67Z" fill="white"/>
<path d="M268.53 65.6899C259.99 68.4799 252.57 70.6399 245.35 73.3299C240.09 75.2899 235.78 79.7699 238.04 85.0499C239.98 89.5799 244.72 94.1399 249.31 95.9999C254.7 98.1799 259 93.6399 260.96 88.4799C263.63 81.4799 265.72 74.2499 268.52 65.6799L268.53 65.6899Z" fill="white"/>
<path d="M281.77 106.93C273.57 109.65 267.07 110.95 261.56 114.01C258.82 115.53 255.97 120.75 256.62 123.48C257.42 126.88 261.39 130.99 264.75 131.86C267.47 132.57 272.78 129.79 274.36 127.06C277.52 121.61 278.9 115.13 281.77 106.93Z" fill="white"/>
<path d="M201.42 65.72C193.71 68.18 186.7 69.47 180.74 72.69C177.49 74.44 173.71 79.97 174.33 82.92C175.14 86.78 179.58 91.53 183.37 92.58C186.23 93.37 192.06 89.82 193.87 86.66C197.27 80.71 198.71 73.65 201.42 65.72Z" fill="white"/>
</g>
<defs>
<linearGradient id="paint0_linear_3367_683" x1="288.629" y1="229.001" x2="-43.0534" y2="68.8078" gradientUnits="userSpaceOnUse">
<stop stop-color="#61B636"/>
<stop offset="1" stop-color="#2C2A7C"/>
</linearGradient>
<linearGradient id="paint1_linear_3367_683" x1="242.588" y1="203.18" x2="9.40866" y2="90.5623" gradientUnits="userSpaceOnUse">
<stop stop-color="#61B636"/>
<stop offset="1" stop-color="#2C2A7C"/>
</linearGradient>
<linearGradient id="paint2_linear_3367_683" x1="138.635" y1="177.59" x2="137.092" y2="177.584" gradientUnits="userSpaceOnUse">
<stop stop-color="#61B636"/>
<stop offset="1" stop-color="#2C2A7C"/>
</linearGradient>
<linearGradient id="paint3_linear_3367_683" x1="229.724" y1="161.915" x2="175.794" y2="133.925" gradientUnits="userSpaceOnUse">
<stop stop-color="#61B636"/>
<stop offset="1" stop-color="#2C2A7C"/>
</linearGradient>
<linearGradient id="paint4_linear_3367_683" x1="277.148" y1="91.9812" x2="229.42" y2="67.4562" gradientUnits="userSpaceOnUse">
<stop stop-color="#61B636"/>
<stop offset="1" stop-color="#2C2A7C"/>
</linearGradient>
<linearGradient id="paint5_linear_3367_683" x1="289.295" y1="129.484" x2="248.387" y2="108.477" gradientUnits="userSpaceOnUse">
<stop stop-color="#61B636"/>
<stop offset="1" stop-color="#2C2A7C"/>
</linearGradient>
<linearGradient id="paint6_linear_3367_683" x1="209.255" y1="89.0398" x2="166.436" y2="67.4436" gradientUnits="userSpaceOnUse">
<stop stop-color="#61B636"/>
<stop offset="1" stop-color="#2C2A7C"/>
</linearGradient>
<linearGradient id="paint7_linear_3367_683" x1="286.342" y1="53.4911" x2="220.489" y2="20.5927" gradientUnits="userSpaceOnUse">
<stop stop-color="#61B636"/>
<stop offset="1" stop-color="#2C2A7C"/>
</linearGradient>
<linearGradient id="paint8_linear_3367_683" x1="325.31" y1="48.5807" x2="270.524" y2="21.0943" gradientUnits="userSpaceOnUse">
<stop stop-color="#61B636"/>
<stop offset="1" stop-color="#2C2A7C"/>
</linearGradient>
<linearGradient id="paint9_linear_3367_683" x1="314.24" y1="69.502" x2="268.822" y2="46.1345" gradientUnits="userSpaceOnUse">
<stop stop-color="#61B636"/>
<stop offset="1" stop-color="#2C2A7C"/>
</linearGradient>
<linearGradient id="paint10_linear_3367_683" x1="222.854" y1="95.6935" x2="186.391" y2="77.2017" gradientUnits="userSpaceOnUse">
<stop stop-color="#61B636"/>
<stop offset="1" stop-color="#2C2A7C"/>
</linearGradient>
<linearGradient id="paint11_linear_3367_683" x1="328.788" y1="88.8284" x2="288.079" y2="68.507" gradientUnits="userSpaceOnUse">
<stop stop-color="#61B636"/>
<stop offset="1" stop-color="#2C2A7C"/>
</linearGradient>
<linearGradient id="paint12_linear_3367_683" x1="301.266" y1="91.5898" x2="268.426" y2="76.3944" gradientUnits="userSpaceOnUse">
<stop stop-color="#61B636"/>
<stop offset="1" stop-color="#2C2A7C"/>
</linearGradient>
<linearGradient id="paint13_linear_3367_683" x1="214.613" y1="122.422" x2="183.919" y2="107.097" gradientUnits="userSpaceOnUse">
<stop stop-color="#61B636"/>
<stop offset="1" stop-color="#2C2A7C"/>
</linearGradient>
<linearGradient id="paint14_linear_3367_683" x1="230.981" y1="174.947" x2="205.669" y2="162.006" gradientUnits="userSpaceOnUse">
<stop stop-color="#61B636"/>
<stop offset="1" stop-color="#2C2A7C"/>
</linearGradient>
<linearGradient id="paint15_linear_3367_683" x1="281.103" y1="53.9935" x2="255.932" y2="41.2679" gradientUnits="userSpaceOnUse">
<stop stop-color="#61B636"/>
<stop offset="1" stop-color="#2C2A7C"/>
</linearGradient>
<clipPath id="clip0_3367_683">
<rect width="326" height="283.94" fill="white"/>
</clipPath>
</defs>
</svg>
