<svg width="280" height="284" viewBox="0 0 280 284" fill="none" xmlns="http://www.w3.org/2000/svg">
<g clip-path="url(#clip0_3367_714)">
<path d="M266.2 177.51L1 282.47V105.29L266.2 1.46997V177.51Z" stroke="url(#paint0_linear_3367_714)" stroke-width="2" stroke-miterlimit="10"/>
<path d="M226.82 166.99L40.38 240.77V116.21L226.82 43.22V166.99Z" stroke="url(#paint1_linear_3367_714)" stroke-width="2" stroke-miterlimit="10"/>
<path d="M137.55 77.08V201.21" stroke="url(#paint2_linear_3367_714)" stroke-width="2" stroke-miterlimit="10"/>
<path d="M279.81 110.2C273.67 111.58 268.38 113.75 263.11 113.7C257.48 113.64 251.39 112.49 246.34 110.06C234.6 104.43 223.33 104.05 211.09 108.49C205.23 110.62 198.42 110.44 192.02 110.58C190.63 110.61 189.18 107.53 187.09 105.1C183.27 108.03 178.8 111.47 173.58 115.48C178.73 119.37 183.15 122.71 188.54 126.79C187.98 118.83 193.16 120.55 197.17 119.76C203.14 118.58 209.38 117.59 214.81 115.04C224.5 110.48 233.86 109.69 243.71 113.89C256.01 119.14 267.72 117.64 279.8 110.2H279.81Z" fill="url(#paint3_linear_3367_714)"/>
<path d="M188.63 76.6C183.05 80.89 178.66 84.27 173.61 88.15C178.82 92.1 183.22 95.44 188.52 99.46C188.09 91.93 192.81 93.12 196.8 92.42C202.78 91.36 209.07 90.44 214.45 87.85C224.46 83.02 234.11 82.47 244.26 86.75C256.02 91.7 267.26 90.26 277.8 82.91C276.43 83.38 275.04 83.8 273.69 84.32C264.31 87.96 255.04 87.66 246.21 82.87C234.88 76.72 223.53 76.62 211.58 81.04C206.88 82.78 201.6 83.07 196.54 83.63C192.45 84.09 188.35 83.9 188.63 76.61V76.6Z" fill="url(#paint4_linear_3367_714)"/>
<path d="M189.93 139.05C189.22 135.84 188.87 134.27 188.29 131.64C183.33 135.38 178.91 138.71 173.58 142.73C178.63 146.6 183.1 150.02 188.52 154.16C188.32 147.27 192.37 147.83 196.34 147.13C202.96 145.96 209.69 144.45 215.86 141.86C224.97 138.04 233.76 137.09 242.95 140.98C254.74 145.98 266.18 145.36 277.01 138.02C275.76 138.42 274.49 138.75 273.27 139.22C264.38 142.62 255.51 142.47 247.15 137.97C235.15 131.51 223.32 131.38 210.58 136.07C204.28 138.39 197.02 138.12 189.94 139.06L189.93 139.05Z" fill="url(#paint5_linear_3367_714)"/>
</g>
<defs>
<linearGradient id="paint0_linear_3367_714" x1="288.629" y1="229.001" x2="-43.0534" y2="68.8078" gradientUnits="userSpaceOnUse">
<stop stop-color="#61B636"/>
<stop offset="1" stop-color="#2C2A7C"/>
</linearGradient>
<linearGradient id="paint1_linear_3367_714" x1="242.588" y1="203.18" x2="9.40866" y2="90.5623" gradientUnits="userSpaceOnUse">
<stop stop-color="#61B636"/>
<stop offset="1" stop-color="#2C2A7C"/>
</linearGradient>
<linearGradient id="paint2_linear_3367_714" x1="138.635" y1="177.59" x2="137.092" y2="177.584" gradientUnits="userSpaceOnUse">
<stop stop-color="#61B636"/>
<stop offset="1" stop-color="#2C2A7C"/>
</linearGradient>
<linearGradient id="paint3_linear_3367_714" x1="288.794" y1="122.663" x2="266.293" y2="66.2659" gradientUnits="userSpaceOnUse">
<stop stop-color="#61B636"/>
<stop offset="1" stop-color="#2C2A7C"/>
</linearGradient>
<linearGradient id="paint4_linear_3367_714" x1="286.612" y1="95.1101" x2="261.658" y2="36.9077" gradientUnits="userSpaceOnUse">
<stop stop-color="#61B636"/>
<stop offset="1" stop-color="#2C2A7C"/>
</linearGradient>
<linearGradient id="paint5_linear_3367_714" x1="285.758" y1="149.875" x2="261.305" y2="92.4022" gradientUnits="userSpaceOnUse">
<stop stop-color="#61B636"/>
<stop offset="1" stop-color="#2C2A7C"/>
</linearGradient>
<clipPath id="clip0_3367_714">
<rect width="279.81" height="283.94" fill="white"/>
</clipPath>
</defs>
</svg>
